<?xml version="1.0" standalone="no"?>
<!DOCTYPE svg PUBLIC "-//W3C//DTD SVG 20010904//EN"
 "http://www.w3.org/TR/2001/REC-SVG-20010904/DTD/svg10.dtd">
<svg version="1.0" xmlns="http://www.w3.org/2000/svg"
 width="512.000000pt" height="512.000000pt" viewBox="0 0 512.000000 512.000000"
 preserveAspectRatio="xMidYMid meet">
<metadata>
Created by potrace 1.11, written by Peter Selinger 2001-2013
</metadata>
<g transform="translate(0.000000,512.000000) scale(0.100000,-0.100000)"
fill="#000000" stroke="none">
<path d="M1454 4189 l-131 -130 -62 36 c-116 68 -260 119 -421 150 -95 18
-359 31 -376 18 -9 -6 -8 -39 4 -130 l17 -123 118 0 c144 0 281 -26 405 -76
147 -59 149 -42 -21 -212 l-147 -147 148 -148 148 -147 -43 -88 c-53 -110
-117 -300 -143 -425 -157 -765 196 -1547 875 -1938 575 -330 1294 -318 1859
33 167 104 371 290 492 448 280 369 410 860 349 1324 -112 856 -789 1500
-1656 1577 -294 26 -590 -26 -897 -158 l-84 -36 -151 151 -152 152 -131 -131z
m1585 -1134 c111 -56 212 -206 257 -380 26 -98 26 -342 0 -440 -45 -174 -145
-323 -257 -381 -77 -40 -171 -40 -251 -1 -189 93 -311 401 -278 701 44 388
290 622 529 501z m945 19 c102 -35 200 -173 247 -349 18 -65 22 -108 22 -230
0 -122 -4 -165 -22 -230 -42 -157 -130 -293 -220 -340 -94 -48 -205 -22 -289
69 -101 111 -151 257 -159 461 -10 255 64 469 198 577 70 56 141 70 223 42z
m-551 -1412 c56 -25 109 -78 145 -145 24 -47 27 -62 27 -157 0 -95 -3 -110
-27 -156 -59 -112 -182 -185 -286 -169 -118 18 -209 101 -246 225 -22 72 -20
135 5 216 17 56 31 77 78 125 89 89 193 110 304 61z"/>
</g>
</svg>
